<svg xmlns="http://www.w3.org/2000/svg" width="128.916" height="101.872" viewBox="0 0 128.916 101.872">
  <g id="plan" transform="translate(0 -53.704)">
    <path id="Path_12241" data-name="Path 12241" d="M115.063,67.508v-6.98a3.071,3.071,0,0,0-3.048-3.047h-6.267a3.058,3.058,0,0,0-3.048,3.047v6.98h12.362Zm-78.94,33.938a1.888,1.888,0,0,1,2.669-2.669l1.72,1.72,4.775-4.782a1.89,1.89,0,0,1,2.669,2.677l-6.109,6.11a1.891,1.891,0,0,1-2.67,0Zm70.868-21.79a1.888,1.888,0,1,1,3.776,0v39.634a1.888,1.888,0,1,1-3.776,0ZM77.22,143.549H88.84v-8.1H77.22Zm13.5,3.776H29.135a1.9,1.9,0,0,1-1.891-1.892V133.557a1.888,1.888,0,0,1,1.891-1.884H42.646V120.909a1.882,1.882,0,0,1,1.884-1.884h15.4a1.882,1.882,0,0,1,1.884,1.884v3.355H75.328a1.9,1.9,0,0,1,1.891,1.891v5.517h13.5a1.889,1.889,0,0,1,1.891,1.884v11.876a1.894,1.894,0,0,1-1.891,1.892Zm-28.906-3.776h11.62v-15.5H61.817Zm-15.4,0h11.62V122.8H46.422Zm-15.4,0H42.646v-8.1H31.019ZM23.054,77.765H98.918V60.528a6.848,6.848,0,0,1,6.831-6.824h6.267a6.848,6.848,0,0,1,6.823,6.824V77.765h8.194a1.888,1.888,0,0,1,1.884,1.891v74.035a1.882,1.882,0,0,1-1.884,1.884H74.75a1.888,1.888,0,0,1,0-3.776h50.39V81.54h-6.3V95.194a1.888,1.888,0,1,1-3.776,0V71.284H102.7v56.378h12.362v-23.91a1.888,1.888,0,1,1,3.776,0v25.794a2,2,0,0,1-.321,1.071l-7.951,15.659a1.92,1.92,0,0,1-.842.842,1.88,1.88,0,0,1-2.527-.835l-7.98-15.7a2.009,2.009,0,0,1-.3-1.035V81.54H23.054V95.829a1.888,1.888,0,1,1-3.776,0V59.007a10.016,10.016,0,0,0-5.36-1.527A10.138,10.138,0,0,0,3.775,67.622V132.13c.1-.107.2-.214.3-.314a13.88,13.88,0,0,1,9.843-4.075,14.094,14.094,0,0,1,4.425.721c.314.107.628.228.935.357V104.387a1.888,1.888,0,1,1,3.776,0v27.671a1.888,1.888,0,0,1-3.026,1.5,9.889,9.889,0,0,0-2.883-1.52A10.145,10.145,0,1,0,13.918,151.8H66.2a1.888,1.888,0,0,1,0,3.776H13.918A13.914,13.914,0,0,1,0,141.658V67.622A13.918,13.918,0,0,1,22.211,56.445a1.9,1.9,0,0,1,.842,1.577V77.765Zm90.824,53.673h-10l5,9.842ZM88.64,89.206a1.888,1.888,0,0,1,0,3.776H63.081a1.888,1.888,0,0,1,0-3.776ZM78.012,107.234a1.888,1.888,0,1,1,0,3.776H63.081a1.888,1.888,0,0,1,0-3.776ZM88.64,98.22a1.888,1.888,0,0,1,0,3.776H63.081a1.888,1.888,0,0,1,0-3.776ZM31.226,87.4H52.86a1.888,1.888,0,0,1,1.884,1.891v21.633a1.889,1.889,0,0,1-1.884,1.891H31.226a1.89,1.89,0,0,1-1.891-1.891V89.291A1.89,1.89,0,0,1,31.226,87.4Zm19.742,3.783H33.111V109.04H50.968Z" transform="translate(0 0)" fill="#624491"/>
  </g>
</svg>
