<svg xmlns="http://www.w3.org/2000/svg" width="95.53" height="114.637" viewBox="0 0 95.53 114.637">
  <g id="Contact_form" data-name="Contact form" transform="translate(-12 -2)">
    <path id="Path_12229" data-name="Path 12229" d="M73.407,21.285h-53.5A1.911,1.911,0,0,1,18,19.374V7.911A1.911,1.911,0,0,1,19.911,6h53.5a1.911,1.911,0,0,1,1.911,1.911V19.374A1.911,1.911,0,0,1,73.407,21.285ZM21.821,17.464H71.5V9.821H21.821Z" transform="translate(5.464 3.642)" fill="#624491"/>
    <g id="Group_10404" data-name="Group 10404" transform="translate(23.464 28.748)">
      <path id="Path_12230" data-name="Path 12230" d="M19.911,33.2H31.374a1.911,1.911,0,1,0,0-3.821H21.821V21.732h8.762l-3.03,3.03-2.47-2.47a1.91,1.91,0,1,0-2.7,2.7L26.2,28.814a1.911,1.911,0,0,0,2.7,0l9.553-9.553a1.91,1.91,0,1,0-2.7-2.7l-2.6,2.6a1.911,1.911,0,0,0-1.779-1.251H19.911A1.911,1.911,0,0,0,18,19.821V31.285A1.911,1.911,0,0,0,19.911,33.2Z" transform="translate(-18 -16)" fill="#624491"/>
      <path id="Path_12231" data-name="Path 12231" d="M35.755,26.56l-2.6,2.6a1.911,1.911,0,0,0-1.779-1.251H19.911A1.911,1.911,0,0,0,18,29.821V41.285A1.911,1.911,0,0,0,19.911,43.2H31.374a1.911,1.911,0,1,0,0-3.821H21.821V31.732h8.762l-3.03,3.03-2.47-2.47a1.91,1.91,0,1,0-2.7,2.7L26.2,38.814a1.911,1.911,0,0,0,2.7,0l9.553-9.553a1.91,1.91,0,1,0-2.7-2.7Z" transform="translate(-18 -6.894)" fill="#624491"/>
      <path id="Path_12232" data-name="Path 12232" d="M35.755,36.56l-2.6,2.6a1.911,1.911,0,0,0-1.779-1.251H19.911A1.911,1.911,0,0,0,18,39.821V51.285A1.911,1.911,0,0,0,19.911,53.2H31.374a1.911,1.911,0,1,0,0-3.821H21.821V41.732h8.762l-3.03,3.03-2.47-2.47a1.91,1.91,0,1,0-2.7,2.7L26.2,48.814a1.911,1.911,0,0,0,2.7,0l9.553-9.553a1.91,1.91,0,1,0-2.7-2.7Z" transform="translate(-18 2.212)" fill="#624491"/>
    </g>
    <path id="Path_12233" data-name="Path 12233" d="M62.48,26.821H31.911a1.911,1.911,0,0,1,0-3.821H62.48a1.911,1.911,0,1,1,0,3.821Z" transform="translate(16.391 19.122)" fill="#624491"/>
    <path id="Path_12234" data-name="Path 12234" d="M62.48,26.821H31.911a1.911,1.911,0,0,1,0-3.821H62.48a1.911,1.911,0,1,1,0,3.821Z" transform="translate(16.391 19.122)" fill="#624491"/>
    <path id="Path_12235" data-name="Path 12235" d="M49.106,36.821h-17.2a1.911,1.911,0,0,1,0-3.821h17.2a1.911,1.911,0,1,1,0,3.821Z" transform="translate(16.391 28.228)" fill="#624491"/>
    <path id="Path_12236" data-name="Path 12236" d="M102.493,63.368,92.245,53.12V3.911A1.911,1.911,0,0,0,90.334,2H13.911A1.911,1.911,0,0,0,12,3.911v89.8a1.911,1.911,0,0,0,1.911,1.911H69.077a20.841,20.841,0,0,0,3.3,14.7l.764,1.162v3.246a1.911,1.911,0,0,0,3.821,0V110.9a1.911,1.911,0,0,0-.319-1.057L75.548,108.2a17.033,17.033,0,0,1-2.591-12.579h6.517a13.947,13.947,0,0,0,2.746,5.825l.9,1.108a1.911,1.911,0,1,0,2.969-2.4l-.888-1.1a10.126,10.126,0,0,1,.191-12.889,1.911,1.911,0,0,0-.1-2.593L75.26,73.544a3.863,3.863,0,0,1-.015-5.413,3.957,3.957,0,0,1,5.428-.011L94.18,81.628a1.91,1.91,0,1,0,2.7-2.7l-4.637-4.637V58.523l7.547,7.547a13.3,13.3,0,0,1,3.917,9.457V101.7a9.513,9.513,0,0,1-1.6,5.3l-1.248,1.874a5.7,5.7,0,0,0-.955,3.206l.013,2.654a1.911,1.911,0,0,0,1.911,1.9h.01a1.911,1.911,0,0,0,1.893-1.912l-.019-2.663a1.922,1.922,0,0,1,.321-1.07l1.248-1.872a13.315,13.315,0,0,0,2.253-7.419V75.525a17.083,17.083,0,0,0-5.036-12.157ZM83.363,65.407a7.833,7.833,0,0,0-10.816.017,7.7,7.7,0,0,0,0,10.816l8.867,8.871A13.839,13.839,0,0,0,79.22,91.8h-63.4V5.821h72.6V70.468Z" transform="translate(0 0)" fill="#624491"/>
    <path id="Path_12237" data-name="Path 12237" d="M30,44.911a1.911,1.911,0,0,0,1.911,1.911H54.838a1.911,1.911,0,1,0,0-3.821H31.911A1.911,1.911,0,0,0,30,44.911Z" transform="translate(16.391 37.334)" fill="#624491"/>
    <path id="Path_12238" data-name="Path 12238" d="M62.48,22.821H31.911a1.911,1.911,0,0,1,0-3.821H62.48a1.911,1.911,0,1,1,0,3.821Z" transform="translate(16.391 15.48)" fill="#624491"/>
    <path id="Path_12239" data-name="Path 12239" d="M62.48,32.821H31.911a1.911,1.911,0,0,1,0-3.821H62.48a1.911,1.911,0,1,1,0,3.821Z" transform="translate(16.391 24.586)" fill="#624491"/>
    <path id="Path_12240" data-name="Path 12240" d="M49.106,42.821h-17.2a1.911,1.911,0,0,1,0-3.821h17.2a1.911,1.911,0,1,1,0,3.821Z" transform="translate(16.391 33.692)" fill="#624491"/>
  </g>
</svg>
