<svg xmlns="http://www.w3.org/2000/svg" width="124.746" height="124.752" viewBox="0 0 124.746 124.752">
  <g id="target" transform="translate(-0.012 0)">
    <g id="Group_10967" data-name="Group 10967" transform="translate(0.012 10.853)">
      <g id="Group_10966" data-name="Group 10966" transform="translate(0)">
        <path id="Path_12481" data-name="Path 12481" d="M104.458,68.243a2.712,2.712,0,0,0-4.523,2.994A51.572,51.572,0,1,1,85.361,56.663a2.712,2.712,0,0,0,2.994-4.523,56.992,56.992,0,1,0,16.1,16.1Z" transform="translate(-0.012 -42.686)" fill="#624491"/>
      </g>
    </g>
    <g id="Group_10969" data-name="Group 10969" transform="translate(43.402 54.243)">
      <g id="Group_10968" data-name="Group 10968">
        <path id="Path_12482" data-name="Path 12482" d="M184.238,213.352A13.559,13.559,0,1,0,197.8,226.911,13.575,13.575,0,0,0,184.238,213.352Zm0,21.7a8.136,8.136,0,1,1,8.136-8.136A8.146,8.146,0,0,1,184.238,235.047Z" transform="translate(-170.679 -213.352)" fill="#624491"/>
      </g>
    </g>
    <g id="Group_10971" data-name="Group 10971" transform="translate(54.249 0)">
      <g id="Group_10970" data-name="Group 10970" transform="translate(0 0)">
        <path id="Path_12483" data-name="Path 12483" d="M283.644,12.529a2.712,2.712,0,0,0-2.506-1.676H273V2.717A2.715,2.715,0,0,0,268.371.8L257.524,11.645a2.731,2.731,0,0,0-.792,1.92v9.725l-42.6,42.6a2.712,2.712,0,0,0,3.835,3.835l42.6-42.6h9.725a2.708,2.708,0,0,0,1.92-.792l10.848-10.848A2.726,2.726,0,0,0,283.644,12.529ZM269.168,21.7h-7.013V14.687l5.424-5.424v4.3a2.713,2.713,0,0,0,2.712,2.712h4.3Z" transform="translate(-213.34 0)" fill="#624491"/>
      </g>
    </g>
    <g id="Group_10973" data-name="Group 10973" transform="translate(21.707 32.548)">
      <g id="Group_10972" data-name="Group 10972">
        <path id="Path_12484" data-name="Path 12484" d="M152.382,148.1a2.712,2.712,0,0,0-4.892,2.343,29.543,29.543,0,0,1,2.94,12.833A29.831,29.831,0,1,1,120.6,133.444a29.5,29.5,0,0,1,12.827,2.934,2.712,2.712,0,0,0,2.343-4.892,34.884,34.884,0,0,0-15.17-3.466,35.255,35.255,0,1,0,35.255,35.255A34.849,34.849,0,0,0,152.382,148.1Z" transform="translate(-85.344 -128.02)" fill="#624491"/>
      </g>
    </g>
  </g>
</svg>
