<svg id="implement" xmlns="http://www.w3.org/2000/svg" width="52.07" height="52.07" viewBox="0 0 52.07 52.07">
  <path id="Path_12475" data-name="Path 12475" d="M4.339,130.523H43.391a.868.868,0,0,0,.868-.868V107.092H42.523v21.7H4.339a2.6,2.6,0,1,1,0-5.207H6.075a.868.868,0,0,0,.868-.868V96.678H20.828V94.943H6.943V88.868A.868.868,0,0,0,6.075,88H4.339A4.344,4.344,0,0,0,0,92.339v33.845A4.344,4.344,0,0,0,4.339,130.523ZM1.736,95.81V92.339a2.6,2.6,0,0,1,2.6-2.6h.868v32.11H4.339a4.322,4.322,0,0,0-2.6.868Zm0,0" transform="translate(0 -78.454)" fill="#624491"/>
  <path id="Path_12476" data-name="Path 12476" d="M91.282,192H80.868a.868.868,0,0,0-.868.868v6.943a.868.868,0,0,0,.868.868H91.282a.868.868,0,0,0,.868-.868v-2.6h3.471v-1.736H92.15v-2.6A.868.868,0,0,0,91.282,192Zm-.868,6.943H81.736v-5.207h8.678Zm0,0" transform="translate(-71.322 -171.172)" fill="#624491"/>
  <path id="Path_12477" data-name="Path 12477" d="M99.96,301.885h10.414a.868.868,0,0,0,.868-.868v-6.943a.868.868,0,0,0-.868-.868h-4.339V288H104.3v5.207H99.96a.868.868,0,0,0-.868.868v2.6H92.15v-2.6a.868.868,0,0,0-.868-.868H80.868a.868.868,0,0,0-.868.868v6.943a.868.868,0,0,0,.868.868H91.282a.868.868,0,0,0,.868-.868v-2.6h6.943v2.6A.868.868,0,0,0,99.96,301.885Zm.868-6.943h8.678v5.207h-8.678ZM90.414,300.15H81.736v-5.207h8.678Zm0,0" transform="translate(-71.322 -256.758)" fill="#624491"/>
  <path id="Path_12478" data-name="Path 12478" d="M279.81,64a7.81,7.81,0,1,0,7.81,7.81A7.81,7.81,0,0,0,279.81,64Zm0,13.885a6.075,6.075,0,1,1,6.075-6.075A6.075,6.075,0,0,1,279.81,77.885Zm0,0" transform="translate(-242.494 -57.057)" fill="#624491"/>
  <path id="Path_12479" data-name="Path 12479" d="M236.638,18.224a.868.868,0,0,0,.868-.868V12.15a.868.868,0,0,0-.868-.868h-3.162a11.5,11.5,0,0,0-.686-1.658l2.239-2.231a.868.868,0,0,0,0-1.229l-3.685-3.688a.867.867,0,0,0-1.227,0l-2.235,2.239a11.542,11.542,0,0,0-1.658-.686V.868A.868.868,0,0,0,225.356,0h-5.207a.868.868,0,0,0-.868.868V4.029a11.544,11.544,0,0,0-1.658.686l-2.232-2.239a.866.866,0,0,0-1.227,0l-3.689,3.686a.868.868,0,0,0,0,1.229l2.239,2.231a11.471,11.471,0,0,0-.686,1.66h-3.162a.868.868,0,0,0-.868.868v5.207a.868.868,0,0,0,.868.868h3.162a11.5,11.5,0,0,0,.686,1.658l-2.239,2.231a.868.868,0,0,0,0,1.23l3.685,3.679a.868.868,0,0,0,1.227,0l2.232-2.231a11.606,11.606,0,0,0,1.661.686v3.162a.868.868,0,0,0,.868.868h5.207a.868.868,0,0,0,.868-.868V25.477a11.553,11.553,0,0,0,1.659-.686l2.232,2.231a.868.868,0,0,0,1.226,0l3.688-3.68a.867.867,0,0,0,0-1.23l-2.239-2.231a11.491,11.491,0,0,0,.686-1.657Zm-4.648-1.089a9.925,9.925,0,0,1-1.023,2.465.868.868,0,0,0,.137,1.052l2.083,2.076-2.459,2.453L228.654,23.1a.868.868,0,0,0-1.051-.136,9.885,9.885,0,0,1-2.465,1.022.868.868,0,0,0-.649.839V27.77h-3.471V24.828a.868.868,0,0,0-.647-.839,9.885,9.885,0,0,1-2.465-1.022.868.868,0,0,0-1.051.136l-2.077,2.077-2.459-2.453,2.083-2.076a.868.868,0,0,0,.137-1.052,9.925,9.925,0,0,1-1.022-2.465.868.868,0,0,0-.839-.647h-2.942V13.017h2.942a.868.868,0,0,0,.838-.647,9.925,9.925,0,0,1,1.023-2.465.868.868,0,0,0-.137-1.052l-2.083-2.077,2.459-2.459L216.854,6.4a.868.868,0,0,0,1.052.137,9.884,9.884,0,0,1,2.465-1.022.868.868,0,0,0,.646-.838V1.736h3.471V4.678a.868.868,0,0,0,.647.839A9.884,9.884,0,0,1,227.6,6.538a.868.868,0,0,0,1.053-.137l2.077-2.083,2.459,2.459-2.083,2.077a.867.867,0,0,0-.137,1.052,9.941,9.941,0,0,1,1.022,2.465.867.867,0,0,0,.836.646h2.942v3.471h-2.942a.868.868,0,0,0-.838.647Zm0,0" transform="translate(-185.436 0)" fill="#624491"/>
  <path id="Path_12480" data-name="Path 12480" d="M315.471,104a3.471,3.471,0,1,0,3.471,3.471A3.472,3.472,0,0,0,315.471,104Zm0,5.207a1.736,1.736,0,1,1,1.736-1.736A1.736,1.736,0,0,1,315.471,109.207Zm0,0" transform="translate(-278.155 -92.718)" fill="#624491"/>
</svg>
