<svg xmlns="http://www.w3.org/2000/svg" width="28.194" height="21.478" viewBox="0 0 28.194 21.478">
  <g id="gmail" transform="translate(0 -60.983)">
    <g id="Group_14057" data-name="Group 14057" transform="translate(1.838 60.983)">
      <path id="Path_17173" data-name="Path 17173" d="M58.247,122.808l-1.8,18.073H34.829l-1.45-17.724,12.259,6.864Z" transform="translate(-33.379 -119.404)" fill="#f2f2f2"/>
      <path id="Path_17174" data-name="Path 17174" d="M62.11,60.983l-12,11.271-12-11.271h24Z" transform="translate(-37.853 -60.983)" fill="#f2f2f2"/>
    </g>
    <path id="Path_17175" data-name="Path 17175" d="M3.288,114.364v16.273H1.329A1.33,1.33,0,0,1,0,129.308V111.967l2.148.059Z" transform="translate(0 -48.177)" fill="#f14336"/>
    <path id="Path_17176" data-name="Path 17176" d="M455.576,109.133v17.341a1.33,1.33,0,0,1-1.33,1.329h-1.958V111.53l1.084-2.562Z" transform="translate(-427.382 -45.343)" fill="#d32e2a"/>
    <path id="Path_17177" data-name="Path 17177" d="M28.194,62.312v1.478l-3.288,2.4L14.1,74.066,3.288,66.187,0,63.791V62.312a1.33,1.33,0,0,1,1.329-1.329H2.1l12,8.745,12-8.745h.769A1.33,1.33,0,0,1,28.194,62.312Z" fill="#f14336"/>
    <path id="Path_17178" data-name="Path 17178" d="M3.288,114.364,0,113.854v-1.887Z" transform="translate(0 -48.177)" fill="#d32e2a"/>
  </g>
</svg>
