<svg xmlns="http://www.w3.org/2000/svg" xmlns:xlink="http://www.w3.org/1999/xlink" width="30" height="30" viewBox="0 0 30 30">
  <defs>
    <linearGradient id="linear-gradient" x1="0.084" y1="0.916" x2="0.916" y2="0.084" gradientUnits="objectBoundingBox">
      <stop offset="0" stop-color="#ffd600"/>
      <stop offset="0.5" stop-color="#ff0100"/>
      <stop offset="1" stop-color="#d800b9"/>
    </linearGradient>
    <linearGradient id="linear-gradient-2" x1="0.146" y1="0.854" x2="0.854" y2="0.146" gradientUnits="objectBoundingBox">
      <stop offset="0" stop-color="#ff6400"/>
      <stop offset="0.5" stop-color="#ff0100"/>
      <stop offset="1" stop-color="#fd0056"/>
    </linearGradient>
    <linearGradient id="linear-gradient-3" x1="0.146" y1="0.854" x2="0.854" y2="0.146" gradientUnits="objectBoundingBox">
      <stop offset="0" stop-color="#f30072"/>
      <stop offset="1" stop-color="#e50097"/>
    </linearGradient>
  </defs>
  <g id="instagram_6_" data-name="instagram (6)" transform="translate(0 0)">
    <path id="Path_17179" data-name="Path 17179" d="M29.91,8.816a11.012,11.012,0,0,0-.7-3.641,7.352,7.352,0,0,0-1.73-2.657A7.354,7.354,0,0,0,24.825.787a11.01,11.01,0,0,0-3.641-.7C19.585.017,19.074,0,15,0S10.415.017,8.815.09a11.014,11.014,0,0,0-3.641.7,7.352,7.352,0,0,0-2.657,1.73A7.353,7.353,0,0,0,.787,5.174a11.012,11.012,0,0,0-.7,3.641C.017,10.415,0,10.926,0,15s.017,4.585.091,6.185a11.01,11.01,0,0,0,.7,3.641,7.351,7.351,0,0,0,1.73,2.657,7.35,7.35,0,0,0,2.657,1.73,11.006,11.006,0,0,0,3.641.7c1.6.073,2.111.09,6.184.09s4.585-.017,6.184-.09a11.008,11.008,0,0,0,3.641-.7,7.669,7.669,0,0,0,4.387-4.387,11.009,11.009,0,0,0,.7-3.641c.073-1.6.09-2.111.09-6.184s-.017-4.585-.09-6.184Zm-2.7,12.246a8.3,8.3,0,0,1-.516,2.785,4.967,4.967,0,0,1-2.847,2.847,8.3,8.3,0,0,1-2.785.516c-1.581.072-2.056.087-6.061.087s-4.48-.015-6.062-.087a8.3,8.3,0,0,1-2.785-.516,4.649,4.649,0,0,1-1.725-1.122,4.647,4.647,0,0,1-1.122-1.725,8.3,8.3,0,0,1-.516-2.785C2.718,19.48,2.7,19.005,2.7,15s.015-4.48.087-6.062a8.305,8.305,0,0,1,.516-2.785A4.65,4.65,0,0,1,4.429,4.429,4.644,4.644,0,0,1,6.153,3.307,8.3,8.3,0,0,1,8.939,2.79C10.52,2.718,10.995,2.7,15,2.7h0c4.005,0,4.48.015,6.062.088a8.3,8.3,0,0,1,2.785.516,4.651,4.651,0,0,1,1.725,1.122,4.644,4.644,0,0,1,1.122,1.725,8.292,8.292,0,0,1,.517,2.785c.072,1.582.087,2.056.087,6.061S27.282,19.48,27.21,21.061Zm0,0" fill="url(#linear-gradient)"/>
    <path id="Path_17180" data-name="Path 17180" d="M132.242,124.539a7.7,7.7,0,1,0,7.7,7.7A7.7,7.7,0,0,0,132.242,124.539Zm0,12.7a5,5,0,1,1,5-5A5,5,0,0,1,132.242,137.242Zm0,0" transform="translate(-117.242 -117.242)" fill="url(#linear-gradient-2)"/>
    <path id="Path_17181" data-name="Path 17181" d="M365.53,90.425a1.8,1.8,0,1,1-1.8-1.8,1.8,1.8,0,0,1,1.8,1.8Zm0,0" transform="translate(-340.723 -83.433)" fill="url(#linear-gradient-3)"/>
  </g>
</svg>
