<svg xmlns="http://www.w3.org/2000/svg" width="26.434" height="21.478" viewBox="0 0 26.434 21.478">
  <path id="twitter_3_" data-name="twitter (3)" d="M26.434,50.543a11.3,11.3,0,0,1-3.123.856,5.389,5.389,0,0,0,2.384-3,10.83,10.83,0,0,1-3.436,1.312,5.419,5.419,0,0,0-9.374,3.706,5.58,5.58,0,0,0,.126,1.236A15.339,15.339,0,0,1,1.84,48.988a5.421,5.421,0,0,0,1.665,7.243,5.352,5.352,0,0,1-2.448-.667v.059A5.444,5.444,0,0,0,5.4,60.948a5.409,5.409,0,0,1-1.421.178,4.792,4.792,0,0,1-1.026-.093,5.471,5.471,0,0,0,5.064,3.775A10.889,10.889,0,0,1,1.3,67.12,10.15,10.15,0,0,1,0,67.046a15.257,15.257,0,0,0,8.314,2.432A15.318,15.318,0,0,0,23.738,54.057c0-.24-.008-.471-.02-.7A10.811,10.811,0,0,0,26.434,50.543Z" transform="translate(0 -48)" fill="#03a9f4"/>
</svg>
