<svg xmlns="http://www.w3.org/2000/svg" width="77.364" height="77.364" viewBox="0 0 77.364 77.364">
  <g id="Group_14062" data-name="Group 14062" transform="translate(-189.798 -27.833)">
    <path id="Path_12128" data-name="Path 12128" d="M38.682,0A38.682,38.682,0,1,1,0,38.682,38.682,38.682,0,0,1,38.682,0Z" transform="translate(189.798 27.833)" fill="#41bcd0"/>
    <path id="ic_question_answer_24px" d="M27.419,7.417H24.744V19.605H7.351v2.708a1.35,1.35,0,0,0,1.338,1.354H23.406l5.351,5.417V8.771A1.35,1.35,0,0,0,27.419,7.417Zm-5.351,8.125V3.354A1.35,1.35,0,0,0,20.73,2H3.338A1.35,1.35,0,0,0,2,3.354V22.314L7.351,16.9H20.73A1.35,1.35,0,0,0,22.068,15.542Z" transform="translate(213.688 50.973)" fill="#fff"/>
  </g>
</svg>
