<svg xmlns="http://www.w3.org/2000/svg" width="76.166" height="76.166" viewBox="0 0 76.166 76.166">
  <g id="Group_14063" data-name="Group 14063" transform="translate(-183.946 -27.408)">
    <path id="Path_12128" data-name="Path 12128" d="M38.083,0A38.083,38.083,0,1,1,0,38.083,38.083,38.083,0,0,1,38.083,0Z" transform="translate(183.946 27.408)" fill="#212090"/>
    <path id="Icon_awesome-lightbulb" data-name="Icon awesome-lightbulb" d="M6.114,29.27a2.08,2.08,0,0,0,.341,1.14l1.088,1.655a2.03,2.03,0,0,0,1.7.92h3.927a2.03,2.03,0,0,0,1.7-.92l1.088-1.655a2.079,2.079,0,0,0,.341-1.14l0-2.471H6.11l0,2.471ZM0,11.338A11.355,11.355,0,0,0,2.772,18.8,18.57,18.57,0,0,1,6.1,24.689c0,.017,0,.033.007.05H16.3c0-.017,0-.033.007-.05A18.57,18.57,0,0,1,19.63,18.8,11.361,11.361,0,0,0,11.166,0,11.226,11.226,0,0,0,0,11.338ZM11.2,6.185A5.129,5.129,0,0,0,6.11,11.338a1.018,1.018,0,1,1-2.037,0A7.18,7.18,0,0,1,11.2,4.123a1.031,1.031,0,0,1,0,2.062Z" transform="translate(210.828 48.999)" fill="#fff"/>
  </g>
</svg>
