<svg xmlns="http://www.w3.org/2000/svg" width="81.885" height="81.885" viewBox="0 0 81.885 81.885">
  <g id="Group_14064" data-name="Group 14064" transform="translate(-184.556 -27.408)">
    <path id="Path_12128" data-name="Path 12128" d="M40.942,0A40.942,40.942,0,1,1,0,40.942,40.942,40.942,0,0,1,40.942,0Z" transform="translate(184.556 27.408)" fill="#929292"/>
    <path id="ic_question_answer_24px" d="M28.9,7.733H26.073v12.9H7.664V23.5A1.429,1.429,0,0,0,9.08,24.934H24.657l5.664,5.733V9.167A1.429,1.429,0,0,0,28.9,7.733Zm-5.664,8.6V3.433A1.429,1.429,0,0,0,21.825,2H3.416A1.429,1.429,0,0,0,2,3.433V23.5l5.664-5.733h14.16A1.429,1.429,0,0,0,23.241,16.334Z" transform="translate(209.96 52.017)" fill="#fff"/>
  </g>
</svg>
