<svg xmlns="http://www.w3.org/2000/svg" width="80.646" height="80.646" viewBox="0 0 80.646 80.646">
  <g id="Group_14065" data-name="Group 14065" transform="translate(-183.583 -27.408)">
    <path id="Path_12128" data-name="Path 12128" d="M40.323,0A40.323,40.323,0,1,1,0,40.323,40.323,40.323,0,0,1,40.323,0Z" transform="translate(183.583 27.408)" fill="#f4bac2"/>
    <path id="ic_schedule_24px" d="M19.471,2A17.489,17.489,0,1,0,36.978,19.489,17.48,17.48,0,0,0,19.471,2Zm.017,31.48A13.991,13.991,0,1,1,33.48,19.489,13.987,13.987,0,0,1,19.489,33.48Zm.874-22.735H17.74V21.238l9.182,5.509L28.233,24.6l-7.87-4.67Z" transform="translate(204.417 48.243)" fill="#fff"/>
  </g>
</svg>
