<svg id="Group_14063" data-name="Group 14063" xmlns="http://www.w3.org/2000/svg" width="702.5" height="691.704" viewBox="0 0 702.5 691.704">
  <path id="Path_13571" data-name="Path 13571" d="M383.809,4.833C205.725-83.71,0,147.074,0,328.5S147.074,657,328.5,657,657,509.926,657,328.5,561.892,93.376,383.809,4.833Z" transform="translate(45.5 14.704)" fill="#546bcc" opacity="0.02"/>
  <g id="Group_14061" data-name="Group 14061" transform="translate(0 20)">
    <path id="Path_12990" data-name="Path 12990" d="M383.809,4.833C205.725-83.71,0,147.074,0,328.5S147.074,657,328.5,657,657,509.926,657,328.5,561.892,93.376,383.809,4.833Z" transform="translate(0 14.704)" fill="#624491"/>
    <path id="Path_12991" data-name="Path 12991" d="M59.5,0C27.635-20.432,0,26.639,0,59.5a59.5,59.5,0,1,0,119,0C119,26.639,91.365,20.432,59.5,0Z" transform="translate(572 369.704)" fill="#41bcd0"/>
  </g>
</svg>
