<svg xmlns="http://www.w3.org/2000/svg" width="595.566" height="565" viewBox="0 0 595.566 565">
  <g id="Group_14062" data-name="Group 14062" transform="translate(-151.559 -5121.5)">
    <path id="Rectangle_197" data-name="Rectangle 197" d="M431,0h0a36,36,0,0,1,36,36V529a36,36,0,0,1-36,36H36A36,36,0,0,1,0,529V431A431,431,0,0,1,431,0Z" transform="translate(151.559 5121.5)" fill="#41bcd0"/>
    <path id="Rectangle_203" data-name="Rectangle 203" d="M30.55,0h0A29.45,29.45,0,0,1,60,29.45v88.408A4.142,4.142,0,0,1,55.858,122H10.485A10.485,10.485,0,0,1,0,111.515V30.55A30.55,30.55,0,0,1,30.55,0Z" transform="translate(577.176 5564.5)" fill="#f1f4f5"/>
    <path id="Path_17183" data-name="Path 17183" d="M30.55,0A29.45,29.45,0,0,1,60,29.45V59.858A4.142,4.142,0,0,1,55.858,64H10.485A10.485,10.485,0,0,1,0,53.515V30.55A30.55,30.55,0,0,1,30.55,0Z" transform="translate(687.125 5622.5)" fill="#f4bac2"/>
    <path id="Path_17182" data-name="Path 17182" d="M30.55,0A29.45,29.45,0,0,1,60,29.45V194.858A4.142,4.142,0,0,1,55.858,199H10.485A10.485,10.485,0,0,1,0,188.515V30.55A30.55,30.55,0,0,1,30.55,0Z" transform="translate(635.556 5487.5)" fill="#546bcc"/>
  </g>
</svg>
