<svg id="training" xmlns="http://www.w3.org/2000/svg" width="81.578" height="81.575" viewBox="0 0 81.578 81.575">
  <path id="Path_1236" data-name="Path 1236" d="M80.172,64.179a8.136,8.136,0,0,0,.772-.9A8.547,8.547,0,0,0,82.413,56.6l-1.447-5.723a13.757,13.757,0,0,0-8.7-9.589,9.208,9.208,0,1,0-11.906-.812H50.341a4.609,4.609,0,0,0-4.605,4.6,4.541,4.541,0,0,0,.463,1.974H43.1V31.024l3.639-.728a11.872,11.872,0,0,0,9.518-11.611V5.605a4.605,4.605,0,1,0-9.21,0V16.789A3.952,3.952,0,0,1,43.1,20.736H39.011a9.211,9.211,0,1,0-12.421.405,14.448,14.448,0,0,0-7,3.983,9.2,9.2,0,0,0-8.28,16.159,13.762,13.762,0,0,0-8.7,9.589l-1.463,5.8a8.517,8.517,0,0,0,1.485,6.6,7.772,7.772,0,0,0,.772.9A2.628,2.628,0,0,0,1,66.787v2.631A2.634,2.634,0,0,0,3.632,72.05H8.9v7.894H6.264v2.631H19.421V79.944H16.789V72.05h1.075l1.672,6.366a5.265,5.265,0,0,0,6.246,4.045,5.259,5.259,0,0,0,4.031-6.312L26.773,64.582a10.555,10.555,0,0,0-5.273-7H36.525v25H47.051v-25h15.02a10.478,10.478,0,0,0-5.255,6.947L53.748,76.2A5.262,5.262,0,0,0,57.8,82.461a5.261,5.261,0,0,0,6.223-3.988l1.688-6.423H68.1v7.894H65.472v2.631H78.629V79.944H76V72.05h3.947a2.634,2.634,0,0,0,2.631-2.631V66.787a2.625,2.625,0,0,0-2.4-2.608ZM60.209,33.893a6.579,6.579,0,1,1,6.579,6.579A6.586,6.586,0,0,1,60.209,33.893ZM50.351,49.682H63.19l1.654,5.263H18.733l1.654-5.263H50.351ZM33.855,34.7,32.578,35.98,31.3,34.7l.809-11.336h.935ZM26,14.157a6.579,6.579,0,1,1,6.579,6.579A6.586,6.586,0,0,1,26,14.157Zm3.472,9.236-.88,12.321L32.578,39.7l3.987-3.987-.882-12.347H43.1a6.586,6.586,0,0,0,6.579-6.579V5.605a1.974,1.974,0,0,1,3.947,0v13.08a9.234,9.234,0,0,1-7.4,9.031l-5.754,1.153V47.051H37.378a4.541,4.541,0,0,0,.463-1.974,4.609,4.609,0,0,0-4.605-4.6H23.222a9.182,9.182,0,0,0-1.137-14.1A11.81,11.81,0,0,1,29.472,23.394Zm-19.261,10.5a6.579,6.579,0,1,1,6.579,6.579A6.586,6.586,0,0,1,10.211,33.893Zm3.947,46.051H11.527V72.05h2.631ZM3.632,69.418V66.787H9.815l6.683.061.676,2.571Zm20.585-4.226L27.257,76.76a2.63,2.63,0,0,1-2.02,3.126A2.677,2.677,0,0,1,22.1,77.8L19.056,66.234a2.651,2.651,0,0,0-2.574-2.079H9.815a6.169,6.169,0,0,1-5.047-2.418,5.873,5.873,0,0,1-1.053-4.5l1.447-5.722a11.133,11.133,0,0,1,10.8-8.413H33.236a1.973,1.973,0,1,1-.011,3.946H18.455L14.737,58.887l1.783.009A7.967,7.967,0,0,1,24.217,65.192Zm20.2,14.752H39.157V57.577H44.42Zm17.047-2.081a2.694,2.694,0,0,1-3.12,2.025,2.619,2.619,0,0,1-1.664-1.146,2.589,2.589,0,0,1-.376-1.925l3.068-11.682A7.945,7.945,0,0,1,67.057,58.9l1.783-.009L65.122,47.051H50.35a1.973,1.973,0,1,1-.009-3.946H67.61a11.133,11.133,0,0,1,10.8,8.414l1.43,5.643a5.906,5.906,0,0,1-1.035,4.577,6.172,6.172,0,0,1-5.047,2.417H67.094a2.629,2.629,0,0,0-2.559,2.024Zm11.9,2.081H70.735V72.05h2.631Zm6.579-10.526H66.4l.691-2.631H79.945Z" transform="translate(-0.998 -1)" fill="#41bcd0"/>
  <path id="Path_1237" data-name="Path 1237" d="M49,9h2.631v2.631H49Z" transform="translate(14.158 1.526)" fill="#41bcd0"/>
  <path id="Path_1238" data-name="Path 1238" d="M53,9h2.631v2.631H53Z" transform="translate(15.421 1.526)" fill="#41bcd0"/>
  <path id="Path_1239" data-name="Path 1239" d="M57,9h2.631v2.631H57Z" transform="translate(16.684 1.526)" fill="#41bcd0"/>
  <path id="Path_1240" data-name="Path 1240" d="M64.736,5H48.947A3.952,3.952,0,0,0,45,8.947V14.21a3.952,3.952,0,0,0,3.947,3.947h3.947v4.956l8.259-4.956h3.583a3.952,3.952,0,0,0,3.947-3.947V8.947A3.952,3.952,0,0,0,64.736,5Zm1.316,9.21a1.316,1.316,0,0,1-1.316,1.316H60.424l-4.9,2.938V15.526H48.947a1.316,1.316,0,0,1-1.316-1.316V8.947a1.316,1.316,0,0,1,1.316-1.316H64.736a1.316,1.316,0,0,1,1.316,1.316Z" transform="translate(12.895 0.263)" fill="#41bcd0"/>
</svg>
