<svg id="handshake" xmlns="http://www.w3.org/2000/svg" width="92.811" height="91.575" viewBox="0 0 92.811 91.575">
  <path id="Path_1249" data-name="Path 1249" d="M92.432,120.514,76.9,100.335a1.82,1.82,0,0,0-2.419-.425L64.45,106.288H51.369a1.8,1.8,0,0,0-.5.084l-10.142,2.919L30.2,106.413l-10.226-6.5a1.819,1.819,0,0,0-2.393.392L.4,121.584a1.819,1.819,0,0,0,.229,2.522l9.006,7.75,8.079,10.888a6.426,6.426,0,0,0,4.042,10.794,6.472,6.472,0,0,0-.075.984,6.432,6.432,0,0,0,6.432,6.432l.069,0c0,.044,0,.087,0,.131a6.431,6.431,0,0,0,6.432,6.432,6.564,6.564,0,0,0,1-.079,6.432,6.432,0,0,0,10.945,3.916l.984-.984.413.333a6.428,6.428,0,0,0,10.9-4.723,6.42,6.42,0,0,0,6.529-6.525,6.426,6.426,0,0,0,6.528-6.531,6.428,6.428,0,0,0,5.494-9.931l5.9-12.355L92.177,123a1.82,1.82,0,0,0,.255-2.49ZM19.4,103.853l7.353,4.676-16,19.487L4.343,122.5Zm1.037,41.316,2.219-2.219c.067-.067.138-.131.21-.19a2.786,2.786,0,0,1,1.516-.615l.047,0c.079-.006.159-.011.239-.01a2.775,2.775,0,0,1,1.991.874,2.861,2.861,0,0,1-.123,3.959l-2.152,2.152a2.792,2.792,0,1,1-3.948-3.948ZM26.142,156.5a2.791,2.791,0,0,1,0-3.948l4.3-4.3a2.821,2.821,0,0,1,3.174-.548,2.782,2.782,0,0,1,1.538,2.883,2.946,2.946,0,0,1-.831,1.682L30.09,156.5a2.792,2.792,0,0,1-3.948,0Zm6.5,6.56a2.791,2.791,0,0,1,0-3.948l4.3-4.3a2.823,2.823,0,0,1,3.375-.443,2.778,2.778,0,0,1,1.333,2.821,2.95,2.95,0,0,1-.827,1.638l-4.234,4.234a2.792,2.792,0,0,1-3.948,0Zm7.4,5.721a2.8,2.8,0,0,1,0-3.948l2.219-2.219c.067-.067.137-.13.21-.19l0,0a2.782,2.782,0,0,1,1.238-.575l.032,0c.078-.014.157-.025.236-.033.032,0,.064,0,.1,0,.065,0,.13-.008.2-.007a2.774,2.774,0,0,1,1.991.874,2.508,2.508,0,0,1,.18.212,2.881,2.881,0,0,1-.314,3.759l-2.141,2.141a2.8,2.8,0,0,1-3.948,0Zm33.949-20.31a2.794,2.794,0,0,1-3.948,0,1.654,1.654,0,0,0-.124-.111l-11.7-11.825a1.82,1.82,0,0,0-2.587,2.56l11.829,11.952,0,0A2.792,2.792,0,1,1,63.514,155L55.6,147a1.82,1.82,0,0,0-2.587,2.56l7.792,7.873a1.717,1.717,0,0,0,.127.142,2.792,2.792,0,1,1-3.949,3.948l-4.319-4.364a1.82,1.82,0,0,0-2.587,2.56l4.2,4.241a1.62,1.62,0,0,0,.128.143,2.792,2.792,0,0,1-3.948,3.948,4.024,4.024,0,0,0-.413-.329c-.119-.091-.15-.154-.091-.3s.15-.279.21-.426c.067-.164.12-.334.173-.5a6.562,6.562,0,0,0,.236-2.8,6.366,6.366,0,0,0-5.425-5.479,6.491,6.491,0,0,0-1.559-5.857A6.384,6.384,0,0,0,39,150.349h-.192a6.369,6.369,0,0,0-6.3-6.561,6.546,6.546,0,0,0-1.553.165,6.408,6.408,0,0,0-10.634-3.808l-7.035-9.479,16.83-20.5,5.364,1.467-7.005,12.361a6.432,6.432,0,0,0,2.425,8.766q.14.08.283.152l.022.011a6.475,6.475,0,0,0,.772.324,6.431,6.431,0,0,0,7.689-2.91l4.552-8.033,8.128.576,21.644,21.643a2.8,2.8,0,0,1,0,3.948Zm.754-8.342-20.3-20.3a1.613,1.613,0,0,0-.12-.11,1.821,1.821,0,0,0-1.037-.418l-9.952-.706a1.85,1.85,0,0,0-1.712.918L36.5,128.538a2.792,2.792,0,1,1-4.858-2.753l6.832-12.058,2.769-.8.055-.018,10.333-2.984H64.116L79.7,129.742Zm7.342-13.24L67.672,108.552l7.356-4.678L88.5,121.368Zm0,0" transform="translate(0.001 -81.657)" fill="#41bcd0"/>
  <path id="Path_1250" data-name="Path 1250" d="M301.965,44.942a1.815,1.815,0,0,0,1.287-.533l12.431-12.431a1.82,1.82,0,0,0-2.574-2.574L300.678,41.835a1.82,1.82,0,0,0,1.287,3.107Zm0,0" transform="translate(-245.737 -23.728)" fill="#41bcd0"/>
  <path id="Path_1251" data-name="Path 1251" d="M136.16,44.41a1.82,1.82,0,0,0,2.574-2.574L126.3,29.4a1.82,1.82,0,0,0-2.574,2.574Zm0,0" transform="translate(-100.864 -23.728)" fill="#41bcd0"/>
  <path id="Path_1252" data-name="Path 1252" d="M247.781,54.626a1.82,1.82,0,0,0,1.82-1.82V42.519a1.82,1.82,0,1,0-3.64,0V52.807A1.82,1.82,0,0,0,247.781,54.626Zm0,0" transform="translate(-201.375 -33.412)" fill="#41bcd0"/>
  <path id="Path_1253" data-name="Path 1253" d="M246.122,3.011a1.819,1.819,0,1,0,2.787-2.14,1.819,1.819,0,0,0-2.787,2.14Zm0,0" transform="translate(-201.396 -0.5)" fill="#41bcd0"/>
</svg>
