<svg xmlns="http://www.w3.org/2000/svg" width="73.243" height="73.243" viewBox="0 0 73.243 73.243">
  <g id="smiling-girl" transform="translate(16.311 -10.012)">
    <path id="Path_1232" data-name="Path 1232" d="M182.708,316.623a7.531,7.531,0,0,1-10.638,0A1.537,1.537,0,1,0,169.9,318.8a10.609,10.609,0,0,0,14.986,0,1.537,1.537,0,1,0-2.174-2.174Z" transform="translate(-142.665 -252.985)" fill="#41bcd0"/>
    <path id="Path_1234" data-name="Path 1234" d="M113.271,224.857a1.537,1.537,0,1,0,2.174,2.174,2.53,2.53,0,0,1,3.574,0,1.537,1.537,0,1,0,2.174-2.174A5.608,5.608,0,0,0,113.271,224.857Z" transform="translate(-96.921 -177.893)" fill="#41bcd0"/>
    <path id="Path_1235" data-name="Path 1235" d="M271.208,227.031a1.537,1.537,0,0,0,0-2.174,5.608,5.608,0,0,0-7.922,0,1.537,1.537,0,1,0,2.174,2.174,2.53,2.53,0,0,1,3.574,0,1.537,1.537,0,0,0,2.174,0Z" transform="translate(-218.11 -177.893)" fill="#41bcd0"/>
    <g id="analysis" transform="translate(-16.311 10.012)">
      <g id="Group_1047" data-name="Group 1047" transform="translate(0 0)">
        <g id="Group_1046" data-name="Group 1046">
          <path id="Path_1241" data-name="Path 1241" d="M72.824,13.435,59.806.419A1.43,1.43,0,0,0,58.795,0H16.308a4.3,4.3,0,0,0-4.292,4.292V7.019A18.927,18.927,0,0,0,0,24.618a1.431,1.431,0,0,0,1.431,1.431H18.9a1.431,1.431,0,0,0,1.431-1.431V7.153A1.431,1.431,0,0,0,18.9,5.722a18.888,18.888,0,0,0-4.019.432V4.292a1.432,1.432,0,0,1,1.431-1.431H57.364v8.726a4.3,4.3,0,0,0,4.292,4.292h8.726V68.952a1.432,1.432,0,0,1-1.431,1.431H16.308a1.432,1.432,0,0,1-1.431-1.431V56.7a1.431,1.431,0,1,0-2.861,0V68.952a4.3,4.3,0,0,0,4.292,4.292H68.952a4.3,4.3,0,0,0,4.292-4.292V14.447A1.43,1.43,0,0,0,72.824,13.435ZM17.465,8.647V23.188H2.924A16.062,16.062,0,0,1,17.465,8.647Zm44.191,4.371a1.432,1.432,0,0,1-1.431-1.431v-6.7l8.135,8.134Z" transform="translate(0 0)" fill="#41bcd0"/>
        </g>
      </g>
      <g id="Group_1049" data-name="Group 1049" transform="translate(12.016 50.069)">
        <g id="Group_1048" data-name="Group 1048">
          <path id="Path_1242" data-name="Path 1242" d="M86.442,350.419a1.429,1.429,0,1,0,.419,1.011A1.44,1.44,0,0,0,86.442,350.419Z" transform="translate(-84 -350)" fill="#41bcd0"/>
        </g>
      </g>
      <g id="Group_1051" data-name="Group 1051" transform="translate(5.124 10.846)">
        <g id="Group_1050" data-name="Group 1050">
          <path id="Path_1243" data-name="Path 1243" d="M54.715,75.819a1.431,1.431,0,0,0-1.431,1.431V93.284H37.25a1.431,1.431,0,0,0-1.431,1.431,18.9,18.9,0,1,0,18.9-18.9Zm1.431,2.924a15.963,15.963,0,0,1,8.846,3.672l-8.846,8.846ZM54.715,110.75a16.057,16.057,0,0,1-15.971-14.6H54.715a1.426,1.426,0,0,0,1.011-.419h0L67.015,84.438a16.027,16.027,0,0,1-12.3,26.312Z" transform="translate(-35.819 -75.819)" fill="#41bcd0"/>
        </g>
      </g>
      <g id="Group_1053" data-name="Group 1053" transform="translate(22.017 45.148)">
        <g id="Group_1052" data-name="Group 1052">
          <path id="Path_1244" data-name="Path 1244" d="M194.556,315.605a4.291,4.291,0,0,0-3.952,5.964l-8.242,8.242a4.284,4.284,0,0,0-3.706-.019l-5.473-5.473a4.292,4.292,0,1,0-7.893.235l-5.249,5.249a4.292,4.292,0,1,0,2.026,2.021l5.22-5.22a4.278,4.278,0,0,0,4.019-.117l5.319,5.319a4.292,4.292,0,1,0,7.748.041l8.165-8.165a4.291,4.291,0,1,0,2.019-8.077Zm-36.36,19.5a1.431,1.431,0,1,1,.99-2.461l.017.018.021.019a1.429,1.429,0,0,1-1.028,2.423Zm10.99-10.92a1.431,1.431,0,1,1,1.431-1.431A1.432,1.432,0,0,1,169.187,324.188Zm11.3,10.914a1.431,1.431,0,1,1,1.431-1.431A1.432,1.432,0,0,1,180.489,335.1Zm14.067-13.775a1.431,1.431,0,1,1,1.431-1.43A1.432,1.432,0,0,1,194.556,321.327Z" transform="translate(-153.905 -315.605)" fill="#41bcd0"/>
        </g>
      </g>
      <g id="Group_1055" data-name="Group 1055" transform="translate(46.537 33.618)">
        <g id="Group_1054" data-name="Group 1054">
          <path id="Path_1245" data-name="Path 1245" d="M334.292,235h-7.55a1.431,1.431,0,0,0,0,2.861h7.55a1.431,1.431,0,0,0,0-2.861Z" transform="translate(-325.311 -235)" fill="#41bcd0"/>
        </g>
      </g>
      <g id="Group_1057" data-name="Group 1057" transform="translate(60.6 33.618)">
        <g id="Group_1056" data-name="Group 1056">
          <path id="Path_1246" data-name="Path 1246" d="M426.062,235.419a1.429,1.429,0,1,0,.419,1.011A1.441,1.441,0,0,0,426.062,235.419Z" transform="translate(-423.62 -235)" fill="#41bcd0"/>
        </g>
      </g>
      <g id="Group_1059" data-name="Group 1059" transform="translate(46.537 19.884)">
        <g id="Group_1058" data-name="Group 1058">
          <path id="Path_1247" data-name="Path 1247" d="M344.216,139H326.742a1.431,1.431,0,1,0,0,2.861h17.475a1.431,1.431,0,0,0,0-2.861Z" transform="translate(-325.311 -139)" fill="#41bcd0"/>
        </g>
      </g>
      <g id="Group_1061" data-name="Group 1061" transform="translate(46.537 26.751)">
        <g id="Group_1060" data-name="Group 1060">
          <path id="Path_1248" data-name="Path 1248" d="M344.216,187H326.742a1.431,1.431,0,0,0,0,2.861h17.475a1.431,1.431,0,0,0,0-2.861Z" transform="translate(-325.311 -187)" fill="#41bcd0"/>
        </g>
      </g>
    </g>
  </g>
</svg>
