<svg xmlns="http://www.w3.org/2000/svg" width="75.626" height="81.788" viewBox="0 0 75.626 81.788">
  <path id="XMLID_173_" d="M91.123,13.445a16.356,16.356,0,0,0-3.928-8l-.012-.013a15.19,15.19,0,0,0-5.061-3.807L82.07,1.6A16.414,16.414,0,0,0,64.959,3.423l-.019.015a19.275,19.275,0,0,0-4.334,5.073h0l-.027.047a16.436,16.436,0,0,0-1.906,9.557,1.588,1.588,0,0,0,.843,1.243,5.887,5.887,0,0,0,.931.389,15.031,15.031,0,0,0,7.617,8.8A14.826,14.826,0,0,0,64,31.605a1.588,1.588,0,1,0,2.313,2.176,11.742,11.742,0,0,1,1.86-1.605,6.834,6.834,0,0,0,6.257,4.719h.237a6.8,6.8,0,0,0,6.2-5.032,11.729,11.729,0,0,1,5.5,9.853V58.21L71.92,67.582a1.588,1.588,0,1,0,1.729,2.664L88.815,60.4a1.588,1.588,0,0,0,.724-1.332V41.716a14.723,14.723,0,0,0-8.1-13.179,15.108,15.108,0,0,0,8.346-12.59,5.946,5.946,0,0,0,1.149-1.421A1.584,1.584,0,0,0,91.123,13.445ZM74.662,33.719h-.237A3.842,3.842,0,0,1,70.92,29.7c0-.027,0-.054,0-.081a15.091,15.091,0,0,0,7.129.131C77.922,31.893,76.394,33.719,74.662,33.719Zm.094-6.784a11.875,11.875,0,0,1-10.894-7.128,5.947,5.947,0,0,0,4.247-4.8,22.551,22.551,0,0,0,2.871.183,21.613,21.613,0,0,0,9.128-1.974A5.94,5.94,0,0,0,85.8,17.492a5.851,5.851,0,0,0,.585-.029A11.921,11.921,0,0,1,74.757,26.934ZM85.8,14.316a2.756,2.756,0,0,1-2.753-2.753v-.884a1.588,1.588,0,0,0-2.432-1.345,18.071,18.071,0,0,1-9.637,2.681,19.163,19.163,0,0,1-4.053-.43A1.588,1.588,0,0,0,65,13.137V14.1a2.756,2.756,0,0,1-2.753,2.753,2.786,2.786,0,0,1-.308-.017l-.071-.009-.106-.017q-.006-.2-.006-.407a13.245,13.245,0,0,1,1.6-6.309l.012-.021a16.28,16.28,0,0,1,3.521-4.131l.011-.008A13.238,13.238,0,0,1,80.7,4.468l.137.062A11.991,11.991,0,0,1,84.787,7.52l.028.032a13.193,13.193,0,0,1,3.052,5.826A2.761,2.761,0,0,1,85.8,14.316ZM61.233,54.944a12.166,12.166,0,0,0,4.662-16.082,1.612,1.612,0,0,0-.106-.2,12.169,12.169,0,0,0-21.42,0,1.607,1.607,0,0,0-.1.2,12.165,12.165,0,0,0,4.658,16.083A13.407,13.407,0,0,0,41.649,66.87v5.792A1.588,1.588,0,0,0,42.384,74L54.226,81.54a1.588,1.588,0,0,0,1.7,0l11.87-7.5a1.588,1.588,0,0,0,.74-1.35l-.028-5.831A13.456,13.456,0,0,0,61.233,54.944Zm-6.154-19.5a8.981,8.981,0,0,1,6.892,3.22,25.926,25.926,0,0,1-13.784,0A8.981,8.981,0,0,1,55.078,35.447Zm-9,9a8.957,8.957,0,0,1,.5-2.947,28.9,28.9,0,0,0,17,0,9,9,0,1,1-17.5,2.947ZM57.9,56.288a2.891,2.891,0,0,1-2.708,2.518H55a3.007,3.007,0,0,1-2.846-2.545,12.223,12.223,0,0,0,5.748.027ZM55.082,78.32,44.825,71.79V66.87a10.231,10.231,0,0,1,4.62-8.559A6.231,6.231,0,0,0,55,61.981h.193a6,6,0,0,0,5.43-3.726,10.291,10.291,0,0,1,4.714,8.623l.024,4.951ZM43.676,35.7a1.588,1.588,0,0,0-.511-2.187,14.791,14.791,0,0,0-1.5-.816,14.993,14.993,0,0,0,5.076-4.237,5.535,5.535,0,0,0,7.344-5.23V19.281A19.28,19.28,0,0,0,35.575.016h0C35.141,0,34.737,0,34.34.005A19.277,19.277,0,0,0,15.523,19.281v3.946a5.535,5.535,0,0,0,7.344,5.23,14.978,14.978,0,0,0,5.681,4.529,14.726,14.726,0,0,0-7.93,13.088v13a1.588,1.588,0,0,0,.724,1.332l14.405,9.347a1.588,1.588,0,0,0,1.729-2.664L23.794,58.211V46.075a11.539,11.539,0,0,1,4.577-9.224c.983,2.852,3.507,5,6.3,5h.237c3.031,0,5.45-2.744,6.3-5.809q.142.083.282.17A1.588,1.588,0,0,0,43.676,35.7ZM24.984,13.51a11.382,11.382,0,0,0-1.569,5.771v3.946a2.355,2.355,0,0,1-.9,1.855,1.572,1.572,0,0,0-.135.1A2.357,2.357,0,0,1,18.7,23.227V19.281A16.012,16.012,0,0,1,34.416,3.18c.329-.008.668,0,1.035.01A16.056,16.056,0,0,1,50.91,19.281v3.946a2.357,2.357,0,0,1-3.677,1.954,1.6,1.6,0,0,0-.135-.1,2.356,2.356,0,0,1-.9-1.856V19.281A11.449,11.449,0,0,0,36.481,8.014a1.588,1.588,0,0,0-1.815,1.447,16.081,16.081,0,0,1-.6,3.267H26.353A1.588,1.588,0,0,0,24.984,13.51ZM34.905,38.67h-.237c-1.8,0-3.557-2.179-3.557-4.4a1.587,1.587,0,0,0-.051-.4,15.273,15.273,0,0,0,7.3.048C38.249,36.227,36.5,38.67,34.905,38.67Zm-.1-7.51A11.812,11.812,0,0,1,25.444,26.6a5.507,5.507,0,0,0,1.147-3.37V19.281a8.22,8.22,0,0,1,.725-3.378h7.9A1.588,1.588,0,0,0,36.7,14.866a19.152,19.152,0,0,0,.9-3.31,8.27,8.27,0,0,1,5.421,7.725v3.946a5.506,5.506,0,0,0,1.147,3.37A11.81,11.81,0,0,1,34.8,31.16Z" transform="translate(-15.523)" fill="#41bcd0"/>
</svg>
